<?xml version="1.0" encoding="UTF-8"?>
<svg id="Laag_2" data-name="Laag 2" xmlns="http://www.w3.org/2000/svg" viewBox="0 0 182.285 319.888">
  <defs>
    <style>
      .cls-1 {
        fill: #8f9f4c;
      }
    </style>
  </defs>
  <g id="Laag_1-2" data-name="Laag 1">
    <g>
      <path class="cls-1" d="M8.114,193.931c2.774-9.655,5.926-19.46,10.977-28.201,1.636-2.831,3.483-5.611,5.825-7.91.88-.864,1.822-1.725,2.889-2.354.329-.194,1.578-.559.692-.425,3.611-.545,8.043,2.916,10.61,5.197,4.563,4.055,8.147,9.16,11.369,14.305,14.81,23.646,23.286,50.724,33.058,76.666,3.875,10.287,8.487,20.304,11.965,30.74,4.042,12.129,5.416,24.707,6.266,37.409l8.214-2.201c-4.381-61.945-1.623-129.416,34.645-182.406,10.263-14.995,22.923-28.075,37.226-39.249,1.504-1.175-1.343-1.256-1.909-1.233-1.839.077-4.041.789-5.505,1.932-24.945,19.488-44.24,44.893-56.177,74.224-11.85,29.117-16.602,60.677-17.768,91.943-.709,19.003-.066,38.028,1.275,56.989.095,1.346,8.358-.051,8.214-2.201-.824-12.306-2.102-24.544-5.911-36.328-3.369-10.424-7.963-20.407-11.87-30.631-4.897-12.813-9.337-25.788-14.467-38.514-6.052-15.013-12.591-30.31-21.878-43.652-6.074-8.725-14.277-18.027-25.979-15.836C10.937,155.742,4.534,179.723.024,195.421c-.429,1.493,7.508.537,8.09-1.49h0Z"/>
      <path class="cls-1" d="M108.817,293.573c-8.209-18.679-11.616-39.42-15.215-59.371-4.033-22.352-7.396-44.946-13.433-66.874-4.019-14.598-9.824-28.052-18.541-40.442-5.94-8.443-14.124-18.391-25.41-18.38-21.394.021-30.566,25.046-36.195,41.656-.487,1.438,7.392.601,8.095-1.473,3.533-10.423,7.59-21.442,14.548-30.146,3.448-4.313,6.646-7.649,11.65-6.309,9.922,2.656,17.018,13.381,22.206,21.502,18.91,29.604,22.427,66.736,28.493,100.588,3.696,20.628,7.101,42.135,15.589,61.449.844,1.921,8.826-.809,8.214-2.201h0Z"/>
      <path class="cls-1" d="M107.635,289.929c-15.284-64.603-18.358-131.936-8.806-197.646,2.708-18.629,6.446-37.088,11.118-55.322.578-2.254-7.545-1.063-8.146,1.282-16.473,64.294-20.801,131.565-12.588,197.435,2.368,18.991,5.802,37.829,10.208,56.452.522,2.205,8.765.128,8.214-2.201h0Z"/>
      <path class="cls-1" d="M107.399,294.902c.977-41.997,4.153-83.924,9.61-125.578,2.656-20.275,5.814-40.494,9.561-60.597,3.557-19.081,7.896-38.202,15.794-56.016,8.435-19.026,20.856-35.963,36.175-50.016,1.462-1.341-1.27-1.746-2.051-1.76-1.898-.033-4.073.791-5.468,2.071-13.291,12.194-24.426,26.576-32.755,42.587-9.036,17.371-14.221,36.35-18.101,55.455-8.371,41.229-13.769,83.209-17.238,125.12-1.954,23.603-3.191,47.258-3.742,70.936-.041,1.742,8.151.51,8.214-2.201h0Z"/>
      <path class="cls-1" d="M101.756,258.599c-2.383-27.992-5.308-55.836-10.316-83.493-6.43-35.506-15.328-70.625-20.913-106.267-3.446-21.993-4.821-44.244-1.53-66.343.591-3.968-7.776-2.81-8.3.707-5.799,38.943,2.925,77.684,11.013,115.63,6.342,29.754,12.507,59.728,16.51,89.903,2.295,17.296,3.843,34.682,5.322,52.063.3,3.527,8.538,1.599,8.214-2.201h0Z"/>
      <path class="cls-1" d="M101.015,252.727c-2.42-30.356-2.429-61.244,1.206-91.512,2.801-23.327,14.578-59.022,44.755-54.817,3.665.511,8.514-4.621,2.999-5.39-13.541-1.887-26.812,3.814-36.476,13.151-10.337,9.987-15.448,23.909-18.036,37.769-3.039,16.277-3.742,33.166-4.166,49.685-.456,17.786.09,35.582,1.504,53.316.26,3.267,8.501,1.402,8.214-2.201h0Z"/>
      <path class="cls-1" d="M100.635,249.225c-.276-29.122-1.043-59.704,8.204-87.71,4.121-12.482,10.896-24.993,21.676-32.923,10.361-7.622,24.177-10.967,36.321-5.682,1.847.804,4.212.672,5.862-.601,1.038-.801,2.506-2.994.549-3.846-27.119-11.803-55.516,6.56-67.524,30.961-15.05,30.582-13.681,67.398-13.367,100.581.038,3.977,8.311,2.514,8.28-.781h0Z"/>
      <path class="cls-1" d="M105.558,280.368c4.515-38.907-8.762-77.028-21.128-113.304-5.133-15.058-9.573-30.136-13.574-45.527-2.959-11.384-5.963-23.409-12.719-33.234-7.744-11.263-19.806-16.473-33.019-18.313-1.83-.255-4.087.295-5.724,1.116-.537.269-2.925,1.624-1.075,1.882,12.251,1.706,23.617,6.414,31.033,16.704,6.802,9.438,9.896,21.126,12.812,32.217,3.822,14.532,7.761,28.879,12.605,43.113,6.164,18.111,12.466,36.214,17.062,54.803,5.07,20.509,7.961,41.646,5.513,62.745-.083.716,7.946.108,8.214-2.201h0Z"/>
      <path class="cls-1" d="M111.469,35.18c-1.322,1.392-2.719,4.193-4.238,5.923-2.26,2.575,2.194,3.233,3.87,2.456-.717.333-4.362,4.786-5.605,6.067-1.39,1.434-.028,2.638,1.444,2.895l.022,4.23c-.615.753-1.291,1.446-2.026,2.081-1.353,1.247-2.713,2.249-4.328,3.179l4.432,1.383c.947-5.041,1.597-10.11,1.806-15.238.193-4.764-.48-9.747,1.45-14.241.309-.719.239-1.553-.527-1.968-2.998-1.626-6.928-4.666-10.236-1.889-3.219,2.703-.782,7.965,1.149,10.698l.826-2.581c-2.296,1.338-5.585.998-6.482,4.194-.851,3.031,2.552,5.605,4.604,7.304l4.205-3.659c-7.325-1.689-14.528,4.103-11.043,11.58,1.015,2.178,2.658,5.049,5.159,5.73,2.332.635,5.15-.721,5.48-3.21.39-2.941-5.876-2.029-6.218.555l-.082.327,2.401-1.678c1.757-.562,1.568.63.951-1.014-.237-.63-.988-1.372-1.31-1.96-.552-1.009-3.157-7.374,1.044-6.405,1.791.413,6.937-1.398,4.205-3.659-4.403-3.645-2.277-3.603,1.098-5.57.871-.508,1.457-1.687.826-2.581-.665-.942-3.14-4.914-1.987-6.243l-2.863,1.305c.27-.011,3.244,2.022,3.482,2.151l-.527-1.968c-1.885,4.389-1.658,8.742-1.762,13.42-.128,5.772-.8,11.486-1.865,17.157-.413,2.198,3.315,2.026,4.432,1.383,5.418-3.119,18.853-14.742,5.894-17.012l1.444,2.895c2.374-2.447,7.541-5.591,5.197-9.7-1.535-2.69-4.921-2.398-7.332-1.279l3.87,2.456c2.194-2.5,8.436-8.384,4.661-11.716-3.397-2.998-8.15.018-10.614,2.611-2.618,2.755,3.327,3.451,5.095,1.59h0Z"/>
    </g>
  </g>
</svg>